<?xml version="1.0" standalone="no"?>
<!DOCTYPE svg PUBLIC "-//W3C//DTD SVG 20010904//EN"
 "http://www.w3.org/TR/2001/REC-SVG-20010904/DTD/svg10.dtd">
<svg version="1.0" xmlns="http://www.w3.org/2000/svg"
 width="500.000000pt" height="500.000000pt" viewBox="0 0 500.000000 500.000000"
 preserveAspectRatio="xMidYMid meet">

<g transform="translate(0.000000,500.000000) scale(0.100000,-0.100000)"
fill="#000000" stroke="none">
<path d="M1660 3004 c-83 -23 -153 -57 -199 -99 -82 -74 -152 -239 -166 -387
l-7 -78 141 0 141 0 -6 68 c-15 167 84 395 200 457 43 23 30 36 143 -147 43
-70 80 -127 83 -127 8 -1 175 139 179 150 6 20 -101 111 -167 142 -61 29 -77
32 -177 34 -74 2 -128 -2 -165 -13z"/>
<path d="M2671 2996 c-46 -7 -77 -17 -82 -26 -5 -8 -29 -72 -54 -142 -25 -71
-65 -184 -90 -253 -25 -69 -45 -127 -45 -130 0 -3 28 -5 63 -5 l63 0 33 173
c19 94 37 175 41 180 3 4 29 -72 56 -170 l49 -178 138 -3 c75 -1 137 0 137 3
0 2 -29 85 -64 182 -35 98 -79 223 -99 278 -39 113 -32 109 -146 91z"/>
<path d="M3242 2973 c3 -24 8 -28 41 -31 l37 -3 0 -250 0 -249 125 0 125 0 0
250 0 250 33 0 c118 -1 230 -136 230 -279 0 -82 -20 -132 -75 -183 l-41 -38
122 0 121 0 46 42 c61 56 86 108 92 189 10 136 -50 239 -170 295 l-63 29 -313
3 -313 4 3 -29z"/>
<path d="M1620 2360 c-51 -51 5 -130 74 -104 28 11 17 26 -13 19 -30 -6 -61
14 -61 40 0 26 31 46 61 40 34 -8 40 10 7 19 -36 9 -47 7 -68 -14z"/>
<path d="M1851 2354 c-12 -15 -21 -32 -21 -39 0 -24 41 -65 66 -65 35 0 77 44
69 73 -17 57 -80 74 -114 31z m79 -8 c28 -35 -11 -93 -47 -70 -36 22 -23 84
17 84 10 0 23 -7 30 -14z"/>
<path d="M2100 2331 c0 -55 17 -81 54 -81 33 0 48 23 54 82 4 40 2 50 -9 46
-8 -3 -15 -22 -17 -49 -4 -52 -12 -63 -41 -54 -18 5 -21 14 -21 56 0 27 -4 49
-10 49 -5 0 -10 -22 -10 -49z"/>
<path d="M2350 2315 c0 -72 17 -90 22 -22 l3 42 30 -42 c43 -61 55 -56 55 23
0 48 -3 65 -12 61 -7 -2 -14 -17 -14 -33 -1 -16 -2 -33 -3 -38 0 -6 -15 9 -32
32 -17 23 -35 42 -40 42 -5 0 -9 -29 -9 -65z"/>
<path d="M2602 2368 c-23 -23 -14 -46 23 -58 20 -7 35 -18 35 -27 0 -12 -8
-14 -35 -10 -39 6 -48 -9 -11 -19 69 -17 95 44 30 71 -38 16 -38 38 1 33 13
-2 25 2 27 7 4 15 -55 18 -70 3z"/>
<path d="M2820 2315 l0 -65 45 0 c25 0 45 5 45 10 0 6 -16 10 -35 10 -28 0
-35 4 -35 20 0 16 7 20 30 20 17 0 30 5 30 10 0 6 -13 10 -30 10 -20 0 -30 5
-30 15 0 10 11 15 35 15 19 0 35 5 35 10 0 6 -20 10 -45 10 l-45 0 0 -65z"/>
<path d="M3040 2316 l0 -66 45 0 c25 0 45 5 45 10 0 6 -16 10 -36 10 l-35 0 2
52 c2 33 -1 53 -9 56 -9 3 -12 -15 -12 -62z"/>
<path d="M3260 2315 c0 -37 4 -65 10 -65 6 0 10 28 10 65 0 37 -4 65 -10 65
-6 0 -10 -28 -10 -65z"/>
<path d="M3420 2315 c0 -37 4 -65 10 -65 6 0 10 19 10 43 l1 42 37 -43 c20
-23 40 -42 45 -42 11 0 8 130 -3 130 -5 0 -10 -19 -10 -42 l-1 -43 -37 43
c-20 23 -40 42 -44 42 -5 0 -8 -29 -8 -65z"/>
<path d="M3681 2361 c-27 -27 -27 -61 -1 -89 36 -38 108 -21 98 23 -4 21 -23
19 -23 -3 0 -23 -38 -27 -59 -7 -34 34 -3 81 46 71 21 -4 28 -2 26 7 -8 22
-65 20 -87 -2z"/>
<path d="M1389 2142 c89 -126 266 -192 431 -164 92 16 190 66 265 136 l60 56
-75 -3 c-41 -2 -103 -10 -137 -17 -53 -11 -70 -11 -130 3 -51 13 -115 17 -251
17 l-183 0 20 -28z"/>
<path d="M2291 2147 c-5 -13 -15 -42 -22 -65 -12 -40 -14 -42 -51 -42 -34 0
-38 -3 -38 -25 l0 -25 170 0 170 0 0 25 c0 22 -4 25 -36 25 l-37 0 7 50 c4 28
9 57 12 65 5 13 -8 15 -80 15 -81 0 -87 -1 -95 -23z"/>
<path d="M2790 2163 c0 -5 7 -33 15 -63 8 -30 15 -56 15 -57 0 -2 -16 -3 -35
-3 -31 0 -35 -3 -35 -25 l0 -25 225 0 225 0 0 24 c0 21 -5 25 -37 28 -37 3
-39 5 -59 63 l-21 60 -147 3 c-80 1 -146 -1 -146 -5z"/>
<path d="M3320 2105 l0 -65 -40 0 c-36 0 -40 -2 -40 -25 l0 -25 245 0 245 0 0
25 c0 25 -1 25 -80 25 l-80 0 0 65 0 65 -125 0 -125 0 0 -65z"/>
<path d="M1402 1843 c-17 -31 -15 -39 8 -39 21 0 23 9 11 41 -8 19 -8 19 -19
-2z"/>
<path d="M1500 1830 l0 -31 21 20 c22 20 19 41 -7 41 -9 0 -14 -11 -14 -30z
m30 10 c0 -5 -4 -10 -10 -10 -5 0 -10 5 -10 10 0 6 5 10 10 10 6 0 10 -4 10
-10z"/>
<path d="M1613 1853 c20 -5 22 -19 5 -26 -10 -4 -9 -8 2 -16 8 -6 20 -10 25
-10 6 0 5 3 -1 5 -6 3 -9 16 -6 29 4 21 1 25 -19 24 -17 -1 -19 -3 -6 -6z"/>
<path d="M1710 1830 c0 -22 5 -30 18 -30 14 0 15 2 2 10 -13 9 -13 10 0 10 13
0 13 1 0 10 -13 9 -13 11 0 20 13 8 12 10 -2 10 -13 0 -18 -8 -18 -30z"/>
<path d="M1811 1829 c1 -27 3 -29 6 -9 l5 24 13 -23 c6 -13 15 -19 18 -14 4 6
-5 21 -18 33 l-25 23 1 -34z"/>
<path d="M1920 1830 c0 -27 3 -31 23 -28 16 2 22 10 22 28 0 18 -6 26 -22 28
-20 3 -23 -1 -23 -28z m40 0 c0 -11 -7 -20 -15 -20 -8 0 -15 9 -15 20 0 11 7
20 15 20 8 0 15 -9 15 -20z"/>
<path d="M2042 1830 c0 -19 2 -27 5 -17 2 9 2 25 0 35 -3 9 -5 1 -5 -18z"/>
<path d="M2128 1853 c7 -3 16 -2 19 1 4 3 -2 6 -13 5 -11 0 -14 -3 -6 -6z"/>
<path d="M2216 1852 c-3 -6 -1 -14 5 -17 14 -9 20 -2 10 14 -6 8 -11 9 -15 3z"/>
<path d="M2246 1838 c-3 -13 -1 -27 4 -32 7 -7 10 1 10 22 0 37 -5 41 -14 10z"/>
<path d="M2330 1830 c0 -25 4 -30 23 -29 16 1 18 2 5 6 -21 5 -24 39 -5 46 7
3 5 6 -5 6 -13 1 -18 -7 -18 -29z"/>
<path d="M2444 1846 c-9 -24 4 -48 23 -44 24 4 24 52 0 56 -9 2 -20 -4 -23
-12z m36 -16 c0 -11 -7 -20 -15 -20 -8 0 -15 9 -15 20 0 11 7 20 15 20 8 0 15
-9 15 -20z"/>
<path d="M2648 1853 c7 -3 16 -2 19 1 4 3 -2 6 -13 5 -11 0 -14 -3 -6 -6z"/>
<path d="M2740 1845 c0 -8 4 -15 10 -15 5 0 7 7 4 15 -4 8 -8 15 -10 15 -2 0
-4 -7 -4 -15z"/>
<path d="M2766 1838 c-3 -13 -1 -27 4 -32 7 -7 10 1 10 22 0 37 -5 41 -14 10z"/>
<path d="M2938 1853 c7 -3 16 -2 19 1 4 3 -2 6 -13 5 -11 0 -14 -3 -6 -6z"/>
<path d="M3030 1828 c0 -25 3 -29 10 -18 6 10 10 11 10 3 0 -7 4 -13 8 -13 4
0 8 12 7 27 0 18 -6 29 -17 31 -14 3 -18 -3 -18 -30z m30 12 c0 -5 -4 -10 -10
-10 -5 0 -10 5 -10 10 0 6 5 10 10 10 6 0 10 -4 10 -10z"/>
<path d="M3136 1844 c-5 -14 -4 -15 9 -4 12 10 18 10 30 0 13 -11 14 -10 9 4
-3 9 -14 16 -24 16 -10 0 -21 -7 -24 -16z"/>
<path d="M3254 1845 c-9 -23 3 -45 23 -44 17 1 17 2 1 6 -10 2 -18 13 -18 23
0 10 8 21 18 23 16 4 16 5 -1 6 -10 0 -20 -6 -23 -14z"/>
<path d="M3360 1830 c0 -22 5 -30 18 -30 14 0 15 2 2 10 -13 9 -13 10 0 10 13
0 13 1 0 10 -13 9 -13 11 0 20 13 8 12 10 -2 10 -13 0 -18 -8 -18 -30z"/>
<path d="M3460 1843 c0 -10 4 -14 8 -8 4 6 11 13 16 18 5 4 2 7 -7 7 -10 0
-17 -8 -17 -17z"/>
<path d="M3564 1846 c-9 -24 4 -48 23 -44 12 2 18 12 18 28 0 29 -32 41 -41
16z m36 -16 c0 -11 -7 -20 -15 -20 -8 0 -15 9 -15 20 0 11 7 20 15 20 8 0 15
-9 15 -20z"/>
<path d="M2940 1830 c-13 -8 -12 -10 3 -10 9 0 17 5 17 10 0 12 -1 12 -20 0z"/>
<path d="M2128 1823 c7 -3 16 -2 19 1 4 3 -2 6 -13 5 -11 0 -14 -3 -6 -6z"/>
<path d="M2648 1823 c7 -3 16 -2 19 1 4 3 -2 6 -13 5 -11 0 -14 -3 -6 -6z"/>
<path d="M3472 1815 c-11 -12 -10 -15 3 -15 8 0 15 7 15 15 0 18 -2 18 -18 0z"/>
<path d="M3140 1808 c0 -4 6 -8 14 -8 8 0 17 4 20 8 2 4 -4 8 -15 8 -10 0 -19
-4 -19 -8z"/>
<path d="M2128 1803 c7 -3 16 -2 19 1 4 3 -2 6 -13 5 -11 0 -14 -3 -6 -6z"/>
<path d="M2648 1803 c7 -3 16 -2 19 1 4 3 -2 6 -13 5 -11 0 -14 -3 -6 -6z"/>
</g>
</svg>
